<svg version="1.1" xmlns="http://www.w3.org/2000/svg" xmlns:xlink="http://www.w3.org/1999/xlink" width="73.74187" height="43.44921" viewBox="0,0,73.74187,43.44921"><g transform="translate(-203.55453,-158.42293)"><g data-paper-data="{&quot;isPaintingLayer&quot;:true}" fill-rule="nonzero" stroke-linejoin="miter" stroke-miterlimit="10" stroke-dasharray="" stroke-dashoffset="0" style="mix-blend-mode: normal"><g stroke="#703d00" stroke-linecap="round"><path d="M238.00266,159.94355c9.27813,0 16.16492,2.32958 23.77337,6.33544c3.61547,1.90803 7.06279,5.32689 9.07073,10.20248c1.58986,3.8987 2.44891,9.58485 1.01411,13.5264c-1.65922,4.55813 -5.49386,6.60395 -8.76715,7.75854c-7.48872,2.62975 -15.31373,3.02172 -22.99741,2.70525c-8.65069,0.0072 -17.44009,-0.27355 -25.86702,-3.63012c-3.18496,-1.26797 -6.02382,-5.02266 -7.92577,-9.18163c-1.2202,-2.77677 -2.14795,-7.46556 -1.01411,-10.82115c1.89279,-4.80924 5.293,-8.52926 8.93988,-10.55977c7.56527,-4.1886 14.49524,-6.33544 23.77337,-6.33544z" data-paper-data="{&quot;origPos&quot;:null}" fill="#a85b00" stroke-width="2.61452"/><path d="M237.91192,160.01251c9.28271,0 16.12789,0.41402 23.78456,3.49286c3.56175,1.43382 8.58749,4.94696 8.45592,9.23181c0.13157,4.14019 -5.15018,6.60212 -8.45592,7.61826c-7.8271,2.40475 -15.86233,2.9792 -23.97613,2.84736c-8.13415,0.00183 -16.62716,-1.00783 -24.67515,-3.73441c-2.68079,-0.90459 -6.76346,-3.23927 -6.41618,-6.73121c0.19405,-4.48957 4.27235,-7.95109 7.49833,-9.23181c7.67446,-3.04475 14.50185,-3.49286 23.78456,-3.49286z" data-paper-data="{&quot;origPos&quot;:null}" fill="#a85b00" stroke-width="2.4183"/><path d="M239.98725,160.20708c13.84117,-0.01721 16.95201,2.57041 25.02564,4.78706c3.79605,1.0429 8.12335,3.54088 9.45413,7.09877c1.85288,4.95933 1.72268,13.65516 -0.68698,15.86593c-1.70829,1.57089 -4.43068,-7.36572 -7.42591,-7.75304c-1.89541,-0.44686 -0.28657,5.02737 -2.35535,6.08466c-2.81334,1.42237 -7.87997,-2.98868 -9.45413,-0.68698c-1.78353,2.61379 3.48854,6.88745 2.35535,10.14111c-0.55809,2.11197 -4.81997,3.43293 -6.08466,1.70109c-2.41031,-3.30404 0.3533,-8.63303 -1.70109,-12.16933c-1.07888,-1.86138 -4.48302,-1.94644 -6.08466,-0.68698c-3.01027,2.37564 -2.66155,7.61368 -5.72482,9.81397c-1.63893,1.17571 -4.24095,0.3533 -5.75753,-0.68698c-3.83399,-3.23992 -4.7938,-10.59255 -9.45413,-11.48235c-3.51602,-0.67586 -5.37871,8.47535 -7.78575,7.42591c-2.71978,-1.19861 0.33106,-10.30598 -2.02822,-12.49646c-1.45836,-1.34779 -4.24618,6.47853 -5.72482,5.39769c-1.7181,-1.46097 -1.92092,-7.20738 -0.68698,-10.46824c1.28759,-3.2975 4.28936,-6.35684 7.69285,-7.30291c8.51002,-2.36255 7.11317,-3.57778 26.42707,-4.58293z" data-paper-data="{&quot;origPos&quot;:null}" fill="#703d00" stroke-width="1.99513"/></g><path d="M238.62422,159.43512c8.38899,0.20662 16.97948,0.69326 25.02564,3.12968c4.16767,1.26535 9.34879,3.85257 11.25336,8.14403c2.04262,4.69317 1.91242,13.62468 -1.01411,15.88411c-2.02822,1.49284 -5.22561,-7.84987 -8.898,-8.37956c-2.01972,-0.31097 -0.28657,5.17177 -2.35535,6.25942c-2.81334,1.4632 -7.87997,-3.07452 -9.45413,-0.70674c-1.78353,2.6889 3.48854,7.0853 2.35535,10.43239c-0.55809,2.17262 -4.81997,3.53153 -6.08466,1.74996c-2.41031,-3.39897 0.3533,-8.88099 -1.70109,-12.51884c-1.07888,-1.91484 -4.48302,-2.00238 -6.08466,-0.70674c-3.01027,2.44388 -2.66155,7.83234 -5.72482,10.09583c-1.63893,1.20947 -4.24095,0.36344 -5.75753,-0.70667c-3.83399,-3.33296 -4.7938,-10.89678 -9.45413,-11.81217c-3.51602,-0.69522 -5.37871,8.7188 -7.78575,7.6392c-2.71978,-1.23303 0.33106,-10.60197 -2.02822,-12.85539c-1.45836,-1.38645 -4.24618,6.6646 -5.72482,5.55275c-1.7181,-1.50291 -1.92092,-7.41439 -0.68698,-10.76887c1.28759,-3.39223 4.28936,-6.53944 7.69285,-7.51266c8.51002,-2.4304 17.58141,-2.78311 26.42707,-2.91972z" fill="#ddc6d2" stroke="#ddc6d2" stroke-width="2.02398" stroke-linecap="round"/><path d="M239.52383,166.82609c2.14337,0 4.08588,0.15048 5.49255,0.39321c1.40602,0.24273 2.27684,0.57772 2.27684,0.94803c0,0.37031 -0.87083,0.7053 -2.27684,0.94803c-1.40667,0.24273 -3.34918,0.39321 -5.49255,0.39321c-2.14337,0 -4.08588,-0.15048 -5.49255,-0.39321c-1.40602,-0.24273 -2.27684,-0.57772 -2.27684,-0.94803c0,-0.37031 0.87083,-0.7053 2.27684,-0.94803c1.40667,-0.24273 3.34918,-0.39321 5.49255,-0.39321z" fill="#a85b00" stroke="#703d00" stroke-width="1.99513" stroke-linecap="butt"/><g fill="none" stroke="#6148a4" stroke-width="1.99513" stroke-linecap="round"><path d="M223.96868,176.17985l2.02822,-4.38358" data-paper-data="{&quot;origPos&quot;:null}"/><path d="M237.8391,161.75553h4.05644" data-paper-data="{&quot;origPos&quot;:null}"/><path d="M239.86732,180.33666l4.05644,-1.34124" data-paper-data="{&quot;origPos&quot;:null}"/><path d="M251.6768,173.92486l3.72931,1.34124" data-paper-data="{&quot;origPos&quot;:null}"/><path d="M215.52866,181.02364l3.36946,-1.34124" data-paper-data="{&quot;origPos&quot;:null}"/><path d="M207.08864,173.13752v-2.7152" data-paper-data="{&quot;origPos&quot;:null}"/><path d="M223.31442,161.4284l3.04233,-0.32713" data-paper-data="{&quot;origPos&quot;:null}"/><path d="M274.67422,178.99541v-3.72931" data-paper-data="{&quot;origPos&quot;:null}"/><path d="M255.07898,168.85431h-3.04233" data-paper-data="{&quot;origPos&quot;:null}"/><path d="M251.34967,161.10127h2.02822z" data-paper-data="{&quot;origPos&quot;:null}"/></g><g fill="none" stroke="#9b4976" stroke-width="1.99513" stroke-linecap="round"><path d="M224.65566,166.49895l-3.36946,0.65426" data-paper-data="{&quot;origPos&quot;:null}"/><path d="M236.13801,175.2661h-4.05644" data-paper-data="{&quot;origPos&quot;:null}"/><path d="M258.77558,171.56951v-3.04233" data-paper-data="{&quot;origPos&quot;:null}"/><path d="M245.59214,162.44251l3.40218,2.02822" data-paper-data="{&quot;origPos&quot;:null}"/><path d="M270.61777,173.92486v3.72931" data-paper-data="{&quot;origPos&quot;:null}"/><path d="M264.53311,166.13911h2.7152" data-paper-data="{&quot;origPos&quot;:null}"/><path d="M211.47222,171.20966l3.04233,-3.04233" data-paper-data="{&quot;origPos&quot;:null}"/></g><g fill="none" stroke="#ffffff" stroke-width="1.99513" stroke-linecap="round"><path d="M215.20153,175.2661l2.68249,-0.65426" data-paper-data="{&quot;origPos&quot;:null}"/><path d="M230.74032,162.44251l2.7152,2.35535" data-paper-data="{&quot;origPos&quot;:null}"/><path d="M232.66818,185.76706l2.68249,-2.38807" data-paper-data="{&quot;origPos&quot;:null}"/><path d="M249.54822,181.71061l-2.7152,-2.02822" data-paper-data="{&quot;origPos&quot;:null}"/><path d="M255.63288,180.00953l-0.32713,2.02822z" data-paper-data="{&quot;origPos&quot;:null}"/><path d="M259.00235,163.45662h-3.04233" data-paper-data="{&quot;origPos&quot;:null}"/><path d="M267.11523,172.91075l-2.68249,0.68698" data-paper-data="{&quot;origPos&quot;:null}"/><path d="M207.74291,166.49895l3.72931,-1.37396" data-paper-data="{&quot;origPos&quot;:null}"/><path d="M217.09667,163.45662l1.01411,2.35535z" data-paper-data="{&quot;origPos&quot;:null}"/><path d="M245.81891,171.56951l0.35985,1.66838z" data-paper-data="{&quot;origPos&quot;:null}"/></g></g></g></svg>