<svg version="1.1" xmlns="http://www.w3.org/2000/svg" xmlns:xlink="http://www.w3.org/1999/xlink" width="119.95538" height="36.01599" viewBox="0,0,119.95538,36.01599"><g transform="translate(-180.02231,-161.992)"><g data-paper-data="{&quot;isPaintingLayer&quot;:true}" fill-rule="nonzero" stroke="none" stroke-width="1" stroke-linecap="butt" stroke-linejoin="miter" stroke-miterlimit="10" stroke-dasharray="" stroke-dashoffset="0" style="mix-blend-mode: normal"><g><path d="M238.55533,197.15051c-36.5288,-2.57245 -62.76781,-1.71497 -57.9659,-18.69314c4.80191,-16.97818 53.16399,-16.46369 74.42958,-16.46369c21.2656,0 47.5046,9.60382 44.41765,25.72451c-1.88646,8.57484 -48.70507,10.2898 -60.88134,9.43232z" fill="#e8ae68"/><path d="M299.26517,187.71819c-1.71497,8.57484 -48.53358,10.2898 -61.05284,9.43232c-31.04091,-2.22946 -54.70746,-1.88646 -57.9659,-12.34777c2.74395,-0.34299 4.63041,-0.85748 6.68837,0.85748c2.40095,1.88646 8.40334,6.00239 14.23423,4.28742c5.83089,-1.71497 7.88885,0.34299 11.49028,0.34299c3.60143,0 3.77293,-1.02898 7.88885,-1.02898c3.94442,0 15.9492,4.28742 19.55063,3.42993c3.60143,-0.85748 5.83089,-1.20048 8.06035,-0.85748c2.22946,0.34299 8.74633,1.20048 12.17627,-0.68599c3.25844,-1.88646 16.12069,0.85748 18.69314,-0.34299c2.57245,-1.20048 4.97341,-1.37197 7.88885,-1.37197c2.40095,0 8.91783,-3.25844 12.69076,-4.28742c0,0.85748 -0.1715,1.71497 -0.34299,2.57245z" fill="#d69a51"/><path d="M221.23416,163.02266c-6.17388,6.00239 -10.11831,13.89124 -10.11831,13.89124c-1.54347,-6.00239 -0.51449,-10.11831 1.20048,-13.03375c2.91544,-0.51449 5.83089,-0.68599 8.91783,-0.85748z" fill="#f2c083"/><path d="M233.75342,176.7424c-1.88646,-7.03137 0,-11.66178 2.22946,-14.57722c3.08694,-0.1715 6.17388,-0.1715 8.91783,-0.1715c-6.85987,6.00239 -11.14729,14.74872 -11.14729,14.74872z" fill="#f2c083"/><path d="M255.01902,177.77138c-2.05796,-8.06035 0.51449,-12.86226 3.08694,-15.6062c2.57245,0 5.3164,0.34299 8.06035,0.68599c-6.68837,6.00239 -11.14729,14.74872 -11.14729,14.92022z" fill="#f2c083"/><path d="M192.25121,192.8631c0,0 2.05796,0.34299 5.83089,0.85748c3.60143,0.51449 8.91783,1.02898 15.26321,1.54347c6.34538,0.51449 13.71974,0.85748 21.60859,1.20048c3.94442,0.1715 8.06035,0.34299 12.17627,0.34299c4.11592,0 8.40334,-0.1715 12.51926,-0.34299c8.40334,-0.34299 16.80668,-1.20048 24.69553,-2.57245c3.94442,-0.68599 7.54586,-1.54347 10.97579,-2.91544c1.54347,-0.68599 3.25844,-1.71497 3.77293,-3.08694c0.1715,-1.54347 0.1715,-3.25844 0,-4.80191c-0.34299,-3.08694 -1.88646,-5.65939 -3.60143,-7.54586c-1.71497,-1.88646 -3.42993,-3.25844 -4.97341,-4.28742c-1.54347,-1.02898 -2.74395,-1.71497 -3.60143,-2.22946c-0.85748,-0.51449 -1.37197,-0.68599 -1.37197,-0.68599c0,0 0.51449,0.1715 1.37197,0.68599c0.85748,0.51449 2.22946,1.02898 3.77293,2.05796c1.54347,1.02898 3.42993,2.22946 5.1449,4.11592c1.71497,1.88646 3.42993,4.45892 3.94442,7.71735c0.1715,1.54347 0.34299,3.25844 0,5.1449c-0.34299,1.02898 -1.02898,1.71497 -1.71497,2.22946c-0.68599,0.51449 -1.54347,1.02898 -2.40095,1.37197c-3.42993,1.54347 -7.20286,2.40095 -11.14729,3.25844c-7.88885,1.54347 -16.29219,2.22946 -24.69553,2.74395c-4.28742,0.1715 -8.57484,0.34299 -12.86226,0.34299c-4.11592,0 -8.23184,-0.1715 -12.17627,-0.34299c-7.88885,-0.34299 -15.26321,-0.85748 -21.60859,-1.54347c-6.34538,-0.68599 -11.49028,-1.37197 -15.26321,-2.05796c-3.60143,-0.68599 -5.65939,-1.20048 -5.65939,-1.20048z" fill="#ad7939"/><path d="M257.59147,190.29064c-2.22946,0.1715 -3.42993,-1.88646 -1.54347,-2.05796c1.88646,-0.1715 4.28742,1.88646 1.54347,2.05796z" fill="#d69a51"/><path d="M238.38383,191.14813c-2.22946,0.1715 0.1715,-1.37197 1.88646,-1.20048c1.71497,0.1715 0.1715,1.02898 -1.88646,1.20048z" fill="#d69a51"/><path d="M277.48509,189.94765c-1.88646,0.1715 -1.54347,-3.08694 2.40095,-3.08694c3.94442,0 0.51449,2.91544 -2.40095,3.08694z" fill="#d69a51"/><path d="M274.56964,188.23268c-2.05796,1.02898 -2.57245,0.68599 -2.05796,-0.1715c0.51449,-0.85748 3.08694,-0.34299 2.05796,0.1715z" fill="#d69a51"/><path d="M197.56761,188.57568c-3.08694,0.1715 -6.00239,-2.22946 -3.25844,-2.40095c2.74395,-0.1715 5.3164,2.22946 3.25844,2.40095z" fill="#d69a51"/><path d="M200.82605,188.57568c-1.54347,-0.34299 -2.05796,-2.40095 -0.68599,-2.40095c1.37197,0 2.40095,2.74395 0.68599,2.40095z" fill="#d69a51"/><path d="M228.95151,190.11915c-1.54347,0.51449 -2.22946,-1.54347 -0.51449,-1.54347c1.71497,0 1.54347,1.20048 0.51449,1.54347z" fill="#d69a51"/><path d="M295.14925,184.97425c-2.05796,0 -1.02898,-2.22946 0.85748,-2.22946c1.88646,0 1.20048,2.22946 -0.85748,2.22946z" fill="#d69a51"/></g><path d="M255.01902,177.59989c0,0 0.51449,-1.02898 1.20048,-2.57245c0.34299,-0.68599 0.85748,-1.71497 1.54347,-2.57245c0.51449,-0.85748 1.20048,-1.88646 1.88646,-2.91544c1.37197,-1.88646 2.91544,-3.60143 4.28742,-4.80191c1.37197,-1.20048 2.40095,-1.88646 2.40095,-1.88646c0,0 -0.1715,0.1715 -0.51449,0.68599c-0.34299,0.34299 -0.85748,1.02898 -1.37197,1.54347c-0.51449,0.68599 -1.20048,1.54347 -1.88646,2.40095c-0.68599,0.85748 -1.37197,1.71497 -2.05796,2.74395c-1.37197,1.88646 -2.74395,3.77293 -3.77293,5.1449c-1.02898,1.37197 -1.71497,2.22946 -1.71497,2.22946z" fill="#d69a51"/><g fill="#d69a51"><path d="M233.75342,176.7424c0,0 0.51449,-1.02898 1.20048,-2.57245c0.85748,-1.54347 2.05796,-3.60143 3.42993,-5.4879c1.37197,-1.88646 2.91544,-3.77293 4.11592,-4.97341c1.37197,-1.02898 2.40095,-1.71497 2.40095,-1.71497c0,0 -0.1715,0.1715 -0.51449,0.68599c-0.34299,0.34299 -0.85748,0.85748 -1.37197,1.54347c-1.02898,1.37197 -2.40095,3.25844 -3.77293,5.1449c-1.37197,1.88646 -2.74395,3.77293 -3.77293,5.1449c-1.02898,1.37197 -1.71497,2.22946 -1.71497,2.22946z"/><path d="M211.11585,176.7424c0,0 0.34299,-1.02898 1.20048,-2.40095c0.68599,-1.37197 1.88646,-3.25844 3.08694,-5.1449c1.20048,-1.71497 2.57245,-3.42993 3.77293,-4.63041c1.20048,-1.20048 2.05796,-1.71497 2.05796,-1.71497c0,0 -0.1715,0.1715 -0.51449,0.51449c-0.34299,0.34299 -0.68599,0.85748 -1.20048,1.54347c-0.85748,1.37197 -2.22946,3.08694 -3.42993,4.80191c-1.20048,1.71497 -2.40095,3.42993 -3.42993,4.80191c-0.85748,1.37197 -1.54347,2.22946 -1.54347,2.22946z"/></g></g></g></svg>