<svg version="1.1" xmlns="http://www.w3.org/2000/svg" xmlns:xlink="http://www.w3.org/1999/xlink" width="137" height="137" viewBox="0,0,137,137"><g transform="translate(-171.5,-111.5)"><g data-paper-data="{&quot;isPaintingLayer&quot;:true}" fill-rule="nonzero" stroke-linecap="butt" stroke-linejoin="miter" stroke-miterlimit="10" stroke-dasharray="" stroke-dashoffset="0" style="mix-blend-mode: normal"><path d="M221,180c0,-10.49341 8.50659,-19 19,-19c10.49341,0 19,8.50659 19,19c0,10.49341 -8.50659,19 -19,19c-10.49341,0 -19,-8.50659 -19,-19z" fill="none" stroke="#ffffff" stroke-width="2.5"/><path d="M225.01626,180c0,-8.27529 6.70844,-14.98374 14.98374,-14.98374c8.27529,0 14.98374,6.70844 14.98374,14.98374c0,8.27529 -6.70844,14.98374 -14.98374,14.98374c-8.27529,0 -14.98374,-6.70844 -14.98374,-14.98374z" fill="#ffffff" stroke="none" stroke-width="0"/><path d="M171.5,248.5v-137h137v137z" fill="none" stroke="none" stroke-width="0"/></g></g></svg>