<svg version="1.1" xmlns="http://www.w3.org/2000/svg" xmlns:xlink="http://www.w3.org/1999/xlink" width="137" height="137" viewBox="0,0,137,137"><g transform="translate(-171.5,-111.5)"><g data-paper-data="{&quot;isPaintingLayer&quot;:true}" fill-rule="nonzero" stroke-linecap="butt" stroke-linejoin="miter" stroke-miterlimit="10" stroke-dasharray="" stroke-dashoffset="0" style="mix-blend-mode: normal"><path d="M195.46341,180c0,-24.59688 19.9397,-44.53659 44.53659,-44.53659c24.59688,0 44.53659,19.9397 44.53659,44.53659c0,24.59688 -19.9397,44.53659 -44.53659,44.53659c-24.59688,0 -44.53659,-19.9397 -44.53659,-44.53659z" fill="#000000" stroke="none" stroke-width="0"/><path d="M190.5,180c0,-27.33809 22.16191,-49.5 49.5,-49.5c27.33809,0 49.5,22.16191 49.5,49.5c0,27.33809 -22.16191,49.5 -49.5,49.5c-27.33809,0 -49.5,-22.16191 -49.5,-49.5z" fill="none" stroke="#000000" stroke-width="5"/><path d="M171.5,248.5v-137h137v137z" fill="none" stroke="none" stroke-width="0"/></g></g></svg>