<svg version="1.1" xmlns="http://www.w3.org/2000/svg" xmlns:xlink="http://www.w3.org/1999/xlink" width="79.92919" height="44.82448" viewBox="0,0,79.92919,44.82448"><g transform="translate(-200.287,-157.58776)"><g data-paper-data="{&quot;isPaintingLayer&quot;:true}" fill-rule="nonzero" stroke-linejoin="miter" stroke-miterlimit="10" stroke-dasharray="" stroke-dashoffset="0" style="mix-blend-mode: normal"><g data-paper-data="{&quot;index&quot;:null}"><path d="M238.21459,158.26276c18.04821,0 31.77291,15.21733 35.01523,26.63032c1.37795,5.50298 1.77804,11.20381 1.18137,16.84416h-69.75385c-2.51396,0 -3.69533,-2.72818 -3.69533,-5.7317c0.10522,-6.13431 1.71945,-12.15017 4.70028,-17.51959c5.75627,-10.28707 16.33884,-20.22319 32.5523,-20.22319z" fill="#ffd78f" stroke="#e89f1f" stroke-width="1.35" stroke-linecap="butt"/><path d="M210.57585,173.20696l1.75202,10.73031l-2.47332,0.40582l-1.75151,-10.73101l2.47281,-0.40513" fill="#4ed1c1" stroke="#009cc6" stroke-width="1.35" stroke-linecap="round"/><path d="M226.8021,168.17519l-2.53872,10.57186l-2.43596,-0.58747l2.5386,-10.57123l2.43608,0.58684" fill="#ffffff" stroke="#000000" stroke-width="1.8" stroke-linecap="round"/><path d="M218.44599,165.86645l6.29353,8.80767l-2.51699,1.80621l-6.29359,-8.80768l2.51704,-1.8062" fill="#4ed1c1" stroke="#009cc6" stroke-width="1.875" stroke-linecap="round"/><path d="M218.68995,170.8134l-1.86688,13.48137l-3.02859,-0.42088l1.86688,-13.48138l3.0286,0.42088" fill="#4ed1c1" stroke="#009cc6" stroke-width="1.875" stroke-linecap="round"/><path d="M212.37008,167.91895l9.14905,10.89408l-2.45467,2.0697l-9.14861,-10.89445l2.45423,-2.06932" fill="#4ed1c1" stroke="#009cc6" stroke-width="1.35" stroke-linecap="round"/><path d="M215.65064,174.72264l-1.49193,10.77014l-2.5568,-0.35542l1.49193,-10.77014l2.5568,0.35542" fill="#009cc6" stroke="#009cc6" stroke-width="1.875" stroke-linecap="round"/><path d="M278.22553,178.96821l-4.19271,10.02944l-2.38076,-0.99941l4.1927,-10.02943l2.38076,0.99941" fill="#4ed1c1" stroke="#009cc6" stroke-width="1.35" stroke-linecap="round"/><path d="M276.60866,175.64323l-8.30293,7.00072l-1.95213,-2.32475l8.30205,-7.00084l1.95301,2.32487" fill="#4ed1c1" stroke="#009cc6" stroke-width="1.35" stroke-linecap="round"/><path d="M273.13618,176.35104l-9.77773,4.71547l-1.25024,-2.60217l9.77773,-4.71547l1.25024,2.60217" fill="#009cc6" stroke="#009cc6" stroke-width="1.35" stroke-linecap="round"/><path d="M278.24998,184.36408l-10.33312,-3.32031l0.78859,-2.46324l10.33256,3.32006l-0.78802,2.46349" fill="#4ed1c1" stroke="#009cc6" stroke-width="1.875" stroke-linecap="round"/><path d="M210.4344,201.70951h-2.93926c-0.95707,0.12097 -1.92233,-0.1594 -2.66013,-0.77246c-0.73844,-0.61306 -1.18263,-1.50333 -1.22484,-2.4541c-0.04852,-1.09443 0.49649,-2.13151 1.4315,-2.72251c-0.96778,-0.64708 -1.55059,-1.72134 -1.55941,-2.87373c0.10018,-1.073 0.88083,-1.96454 1.94249,-2.21846c-0.76238,-0.77435 -1.1045,-1.86058 -0.91989,-2.92476c0.35788,-1.61297 2.55617,-1.81459 2.55617,-1.81459c-0.7775,-0.85311 -0.7775,-2.14726 0,-3.00036c1.3288,-1.51216 3.27129,0 3.27129,0c0.61306,-0.99172 1.77993,-1.51153 2.93988,-1.31054c1.40757,0.11467 2.56122,1.14924 2.81135,2.52089z" fill="#f46e9e" stroke="#ea3681" stroke-width="1.35" stroke-linecap="round"/><path d="M267.30972,177.79477l-43.3598,-3.30973c-0.70819,-1.55185 -1.21224,-3.19127 -1.49892,-4.87607c-0.31945,-2.01243 0.52484,-4.03242 2.17372,-5.20434c1.52475,-0.84429 3.2965,-1.11332 4.9983,-0.75797c0.53429,-1.82026 2.12583,-3.11756 3.99902,-3.25932c1.95194,-0.31314 3.92972,0.37867 5.27302,1.84483c0.68992,-1.42773 2.12647,-2.33124 3.69848,-2.32494c1.65581,0.16697 3.14151,1.10009 4.02359,2.52656c1.18704,-1.89272 3.28327,-3.00037 5.49794,-2.90523c2.09371,0.0649 3.9965,1.24816 4.99831,3.10748c1.17444,-0.54248 2.52404,-0.54248 3.69848,0c1.36787,0.74788 2.37786,2.02377 2.79938,3.53718c1.16373,-0.25014 2.37723,0.04725 3.29839,0.80837c1.07741,0.79514 1.82467,1.96517 2.09938,3.28453z" fill="#f46e9e" stroke="#ea3681" stroke-width="1.35" stroke-linecap="round"/><path d="M270.37354,170.7182l-1.4913,10.77026l-3.05354,-0.42434l1.4913,-10.77026l3.05354,0.42434" fill="#4ed1c1" stroke="#009cc6" stroke-width="1.875" stroke-linecap="round"/><path d="M222.41426,164.61193l2.49934,11.12241l-2.68893,0.60682l-2.49934,-11.12241l2.68893,-0.60682" fill="#009cc6" stroke="#009cc6" stroke-width="1.35" stroke-linecap="round"/><path d="M209.04447,191.13451c0.45616,0.45616 0.73844,1.08623 0.73844,1.78182c0,0.69559 -0.28227,1.32566 -0.73844,1.78183c-0.45616,0.45616 -1.08623,0.73843 -1.78182,0.73843c-0.69559,0 -1.32566,-0.28227 -1.78182,-0.73843c-0.45616,-0.45616 -0.73844,-1.08624 -0.73844,-1.78183c0,-0.69559 0.28227,-1.32565 0.73844,-1.78182c0.45616,-0.45616 1.08623,-0.73844 1.78182,-0.73844c0.69559,0 1.32566,0.28227 1.78182,0.73844z" fill="#ea3681" stroke="#ea3681" stroke-width="0.9" stroke-linecap="round"/><path d="M243.46744,166.45361c19.16216,0.26273 34.51495,16.02759 34.36122,35.28363h-73.08626c3.23539,0 4.03809,-2.14222 4.6398,-5.69579c2.74078,-16.85046 17.09555,-29.31125 34.08525,-29.58785z" fill="#fdbb38" stroke="#e89f1f" stroke-width="1.35" stroke-linecap="butt"/><path d="M260.70979,164.67178c0.45616,0.45616 0.73843,1.08623 0.73843,1.78182c0,0.69559 -0.28227,1.32566 -0.73843,1.78182c-0.45617,0.45616 -1.08623,0.73843 -1.78183,0.73843c-0.69559,0 -1.32565,-0.28227 -1.78182,-0.73843c-0.45617,-0.45616 -0.73844,-1.08623 -0.73844,-1.78182c0,-0.69559 0.28228,-1.32566 0.73844,-1.78182c0.45616,-0.45616 1.08623,-0.73844 1.78182,-0.73844c0.69559,0 1.32566,0.28227 1.78183,0.73844z" fill="#ea3681" stroke="#ea3681" stroke-width="0.9" stroke-linecap="round"/><path d="M236.13726,162.78159c0.45616,0.45616 0.73844,1.08623 0.73844,1.78182c0,0.69559 -0.28227,1.32566 -0.73844,1.78182c-0.45616,0.45616 -1.08623,0.73844 -1.78182,0.73844c-0.69559,0 -1.32565,-0.28227 -1.78182,-0.73844c-0.45616,-0.45616 -0.73844,-1.08623 -0.73844,-1.78182c0,-0.69559 0.28227,-1.32566 0.73844,-1.78182c0.45616,-0.45616 1.08623,-0.73843 1.78182,-0.73843c0.69559,0 1.32566,0.28227 1.78182,0.73843z" fill="#ea3681" stroke="#ea3681" stroke-width="0.9" stroke-linecap="round"/><path d="M257.66783,196.69672l1.26013,-1.26013" fill="none" stroke="#e89f1f" stroke-width="1.35" stroke-linecap="round"/><path d="M248.84693,191.44009l-1.8902,-0.19784" fill="none" stroke="#e89f1f" stroke-width="1.35" stroke-linecap="round"/><path d="M221.12408,194.80652l-0.63007,-1.8902" fill="none" stroke="#e89f1f" stroke-width="1.35" stroke-linecap="round"/><path d="M253.25738,184.72549l1.26013,1.8902" fill="none" stroke="#e89f1f" stroke-width="1.35" stroke-linecap="round"/><path d="M265.22862,189.766l1.8902,0.63007" fill="none" stroke="#e89f1f" stroke-width="1.35" stroke-linecap="round"/><path d="M238.76589,196.06665l1.26013,1.26013" fill="none" stroke="#e89f1f" stroke-width="1.35" stroke-linecap="round"/><path d="M238.76589,183.46536l1.8902,1.26013" fill="none" stroke="#e89f1f" stroke-width="1.35" stroke-linecap="round"/><path d="M231.83518,190.39607l-0.63007,1.8902" fill="none" stroke="#e89f1f" stroke-width="1.35" stroke-linecap="round"/><path d="M217.34369,184.72549c0.55887,-0.8802 1.19019,-1.7226 1.89019,-2.52026" fill="none" stroke="#ffd78f" stroke-width="1.8" stroke-linecap="round"/><path d="M221.12408,180.31503c2.32935,-2.8082 5.10163,-5.15456 8.19084,-6.93071" fill="none" stroke="#ffd78f" stroke-width="1.8" stroke-linecap="round"/></g></g></g></svg>